<svg xmlns="http://www.w3.org/2000/svg" viewBox="0 0 155.19 102.41"><defs><style>.cls-1{fill:#f2f8fc;}.cls-2,.cls-3,.cls-4,.cls-6,.cls-7,.cls-8,.cls-9{fill:none;}.cls-2,.cls-3,.cls-4{stroke:#b5c6e7;}.cls-2,.cls-3,.cls-4,.cls-6,.cls-7,.cls-8{stroke-linecap:round;stroke-linejoin:round;}.cls-3{stroke-dasharray:4.95 2.97;}.cls-4{stroke-dasharray:5.09 3.05;}.cls-5{fill:#f9f9f2;}.cls-6,.cls-7,.cls-8{stroke:#e0e2b5;}.cls-7{stroke-dasharray:5.06 3.04;}.cls-8{stroke-dasharray:4.98 2.99;}.cls-10,.cls-11,.cls-17{isolation:isolate;fill:#323232;}.cls-10{font-size:10px;font-family:Arial-BoldMT, Arial;font-weight:700;}.cls-11{font-size:6px;}.cls-11,.cls-17{font-family:ArialMT, Arial;}.cls-12{fill:#f2f2f0;}.cls-13{fill:#fbb44c;}.cls-14{fill:#fff;}.cls-15{fill:#25b5f4;}.cls-16{fill:#f95421;}.cls-17{font-size:5.66px;}</style></defs><title>资源 1</title><g id="图层_2" data-name="图层 2"><g id="图层_1-2" data-name="图层 1"><g id="图层_2-2" data-name="图层 2"><g id="SvgjsSvg1006"><rect class="cls-1" x="4.26" y="20.63" width="150.57" height="81.28"/><polyline class="cls-2" points="154.69 99.41 154.69 101.91 152.19 101.91"/><line class="cls-3" x1="149.22" y1="101.91" x2="8.11" y2="101.91"/><polyline class="cls-2" points="6.62 101.91 4.12 101.91 4.12 99.41"/><line class="cls-4" x1="4.12" y1="96.36" x2="4.12" y2="24.65"/><polyline class="cls-2" points="4.12 23.13 4.12 20.63 6.62 20.63"/><line class="cls-3" x1="9.59" y1="20.63" x2="150.7" y2="20.63"/><polyline class="cls-2" points="152.19 20.63 154.69 20.63 154.69 23.13"/><line class="cls-4" x1="154.69" y1="26.18" x2="154.69" y2="97.88"/><g id="SvgjsG1012"><g id="SvgjsPath1013"><rect class="cls-5" x="100.75" y="39.68" width="48.54" height="55.88"/><polyline class="cls-6" points="100.75 42.18 100.75 39.68 103.25 39.68"/><line class="cls-7" x1="106.29" y1="39.68" x2="145.27" y2="39.68"/><polyline class="cls-6" points="146.79 39.68 149.29 39.68 149.29 42.18"/><line class="cls-8" x1="149.29" y1="45.17" x2="149.29" y2="91.56"/><polyline class="cls-6" points="149.29 93.06 149.29 95.56 146.79 95.56"/><line class="cls-7" x1="143.75" y1="95.56" x2="104.77" y2="95.56"/><polyline class="cls-6" points="103.25 95.56 100.75 95.56 100.75 93.06"/><line class="cls-8" x1="100.75" y1="90.06" x2="100.75" y2="43.67"/></g></g><g id="SvgjsG1012-2" data-name="SvgjsG1012"><g id="SvgjsPath1013-2" data-name="SvgjsPath1013"><rect fill="transparent" x="100.59" y="30.07" width="23.51" height="9.17"/><polyline class="cls-9" points="100.59 30.48 100.59 30.07 101.8 30.07"/><line class="cls-9" x1="103.27" y1="30.07" x2="122.15" y2="30.07"/><polyline class="cls-9" points="122.89 30.07 124.1 30.07 124.1 30.48"/><line class="cls-9" x1="124.1" y1="30.97" x2="124.1" y2="38.58"/><polyline class="cls-9" points="124.1 38.83 124.1 39.24 122.89 39.24"/><line class="cls-9" x1="121.42" y1="39.24" x2="102.54" y2="39.24"/><polyline class="cls-9" points="101.8 39.24 100.59 39.24 100.59 38.83"/><line class="cls-9" x1="100.59" y1="38.34" x2="100.59" y2="30.73"/></g></g><g id="SvgjsG1034"><path id="SvgjsPath1035" class="cls-9" d="M55,0h48.53V16.18H55Z"/><g id="SvgjsG1036"><g id="SvgjsText1037"><text class="cls-10" transform="translate(62.41 11.93)">&lt;m-app&gt;</text></g></g></g><g id="SvgjsG1040"><path id="SvgjsPath1041" class="cls-9" d="M0,16.56H48.54V32.74H0Z"/><g id="SvgjsG1042"><g id="SvgjsText1043"><text class="cls-11" transform="translate(8.5 30)">Shadow DOM</text></g></g></g><path class="cls-12" d="M141.75,54.7V89.49a2.43,2.43,0,0,1-2.43,2.43H110.2a2.43,2.43,0,0,1-2.43-2.43h0V47.42A2.42,2.42,0,0,1,110.19,45H132Z"/><path class="cls-13" d="M107.78,81.4v7.51a3,3,0,0,0,3,3h27.85A3,3,0,0,0,141.7,89a.28.28,0,0,0,0-.09V81.4Z"/><path class="cls-13" d="M141.75,54.7h-7.28A2.41,2.41,0,0,1,132,52.29h0V45"/><path class="cls-13" d="M120.73,58.75A3.23,3.23,0,0,0,117.5,62V63.6a1.6,1.6,0,0,1-1.58,1.62h-.2a.83.83,0,0,0-.63.57v.08h0a.78.78,0,0,0,.61.93h.19a1.59,1.59,0,0,1,1.62,1.56V70a3.24,3.24,0,0,0,3.23,3.24.81.81,0,0,0,0-1.62h0a1.59,1.59,0,0,1-1.61-1.57V68.46A3.23,3.23,0,0,0,118,66a3.24,3.24,0,0,0,1.13-2.43V62a1.58,1.58,0,0,1,1.55-1.61h.06a.81.81,0,1,0,0-1.62h0Zm8,0a.81.81,0,0,0,.08,1.62h0a1.6,1.6,0,0,1,1.61,1.57V63.6a3.22,3.22,0,0,0,1.12,2.4,3.21,3.21,0,0,0-1.12,2.43V70a1.6,1.6,0,0,1-1.58,1.62h0a.81.81,0,1,0,0,1.62A3.24,3.24,0,0,0,132,70V68.46a1.59,1.59,0,0,1,1.56-1.62h0a.8.8,0,0,0,.53-.19l.06-.05a.82.82,0,0,0,0-1.15.83.83,0,0,0-.58-.23A1.6,1.6,0,0,1,132,63.64V62a3.23,3.23,0,0,0-3.23-3.23h0Zm-3.95,2.42a1.62,1.62,0,1,0,1.61,1.63v0a1.61,1.61,0,0,0-1.61-1.61h0Zm0,4.85a1.62,1.62,0,0,0-.8,3l-.73,1.46a.8.8,0,0,0,.35,1.08h0a.78.78,0,0,0,1.06-.33l0,0h0l1.21-2.44a1.66,1.66,0,0,0,.48-1.09h0A1.62,1.62,0,0,0,124.84,66h-.07Z"/><path class="cls-14" d="M124,84c-.75.09-.83.14-.83,1v3.59a3,3,0,0,1-.85,2.53,3.32,3.32,0,0,1-.91.57l-.15-.3a1.73,1.73,0,0,0,1-1.28,11.29,11.29,0,0,0,.1-1.84V85c0-.82-.09-.88-.89-1v-.27h2.56Z"/><path class="cls-14" d="M128,85.23c-.16-.64-.43-1.27-1.35-1.27a1,1,0,0,0-1,1,.13.13,0,0,0,0,.06c0,.67.42,1,1.23,1.42,1.16.61,1.67,1,1.67,2a1.94,1.94,0,0,1-2.05,1.81h-.09a3.93,3.93,0,0,1-1.48-.32,10.39,10.39,0,0,1-.26-1.46l.3-.07a1.75,1.75,0,0,0,1.62,1.46,1.07,1.07,0,0,0,1.12-1v-.12c0-.74-.4-1-1.25-1.51s-1.59-1-1.59-1.92a1.8,1.8,0,0,1,1.9-1.69h.1a6.19,6.19,0,0,1,1.28.19c0,.34.08.73.15,1.36Z"/><path class="cls-12" d="M92,54.7V89.49a2.43,2.43,0,0,1-2.4,2.43H60.47a2.42,2.42,0,0,1-2.42-2.42h0V47.42A2.42,2.42,0,0,1,60.47,45H82.31Z"/><path class="cls-15" d="M58.18,81.4v7.51a3,3,0,0,0,3,3H89.06A3,3,0,0,0,92.14,89a.28.28,0,0,0,0-.09V81.4Z"/><path class="cls-15" d="M92,54.7H84.74a2.41,2.41,0,0,1-2.43-2.41h0V45"/><path class="cls-15" d="M71,58.75A3.24,3.24,0,0,0,67.77,62h0v1.6a1.6,1.6,0,0,1-1.58,1.62h0a.78.78,0,0,0-.8.66h0a.82.82,0,0,0,.24.74l.12.09a.6.6,0,0,0,.23.1h.21a1.59,1.59,0,0,1,1.62,1.56V70A3.25,3.25,0,0,0,71,73.28a.81.81,0,1,0,0-1.62,1.6,1.6,0,0,1-1.62-1.58V68.46A3.27,3.27,0,0,0,68.27,66a3.21,3.21,0,0,0,1.12-2.43V62A1.58,1.58,0,0,1,71,60.39H71a.81.81,0,0,0,0-1.62Zm8,0a.81.81,0,0,0,.08,1.62h0A1.59,1.59,0,0,1,80.69,62V63.6A3.22,3.22,0,0,0,81.81,66a3.21,3.21,0,0,0-1.12,2.43V70a1.6,1.6,0,0,1-1.58,1.62h0a.81.81,0,0,0,0,1.62A3.26,3.26,0,0,0,82.31,70V68.46a1.59,1.59,0,0,1,1.56-1.62h.06a.83.83,0,0,0,.52-.19l.06-.05a.81.81,0,0,0-.58-1.38,1.6,1.6,0,0,1-1.62-1.58V62a3.24,3.24,0,0,0-3.24-3.23Z"/><path class="cls-14" d="M73.22,88.51A12.58,12.58,0,0,1,72.68,90a8.85,8.85,0,0,1-1.77.23,3.21,3.21,0,0,1-3.5-2.9,1.82,1.82,0,0,1,0-.33,3.36,3.36,0,0,1,3.37-3.36h.31a10.39,10.39,0,0,1,1.83.22,10.93,10.93,0,0,0,.19,1.51l-.3.07a1.73,1.73,0,0,0-.92-1.26,2.85,2.85,0,0,0-1-.18c-1.6,0-2.45,1.18-2.45,2.78,0,1.88,1,3.08,2.54,3.08,1,0,1.48-.45,2-1.43Z"/><path class="cls-14" d="M77.55,85.23c-.17-.64-.44-1.27-1.35-1.27a1,1,0,0,0-1,1,.13.13,0,0,0,0,.06c0,.67.42,1,1.23,1.42,1.16.61,1.67,1,1.67,2a1.94,1.94,0,0,1-2,1.81H76a3.93,3.93,0,0,1-1.48-.32,10.39,10.39,0,0,1-.26-1.46l.3-.07a1.75,1.75,0,0,0,1.63,1.49,1.07,1.07,0,0,0,1.12-1v-.12c0-.74-.39-1-1.25-1.51s-1.59-1-1.59-1.92a1.8,1.8,0,0,1,1.9-1.69h.1a6.19,6.19,0,0,1,1.28.19,13.36,13.36,0,0,0,.16,1.36Z"/><path class="cls-14" d="M82.4,85.23C82.23,84.59,82,84,81.05,84a1,1,0,0,0-1,1,.13.13,0,0,0,0,.06c0,.67.43,1,1.23,1.42,1.17.61,1.67,1,1.67,2a1.92,1.92,0,0,1-2,1.81h-.1a4,4,0,0,1-1.49-.32c-.07-.27-.19-.93-.26-1.46l.3-.07A1.76,1.76,0,0,0,81,89.88a1.08,1.08,0,0,0,1.13-1v-.11c0-.74-.4-1-1.25-1.51s-1.6-1-1.6-1.92a1.8,1.8,0,0,1,1.9-1.69h.1a6.19,6.19,0,0,1,1.28.19,13.36,13.36,0,0,0,.16,1.36Z"/><path class="cls-12" d="M42.42,54.7V89.49A2.43,2.43,0,0,1,40,91.92H10.87a2.43,2.43,0,0,1-2.43-2.43h0V47.42A2.42,2.42,0,0,1,10.86,45H32.71Z"/><path class="cls-16" d="M8.45,81.4v7.51a3,3,0,0,0,3,3H39.32A3,3,0,0,0,42.4,89a.28.28,0,0,0,0-.09V81.4Z"/><path class="cls-16" d="M42.42,54.7H35.14a2.41,2.41,0,0,1-2.43-2.41h0V45"/><path class="cls-16" d="M21.43,60.35a.84.84,0,0,0-.56.24L16,65.44h0a.8.8,0,0,0,0,1.14l.07.06,4.83,4.78a.81.81,0,0,0,1.14,0,.82.82,0,0,0,0-1.15l0,0h0L17.69,66,22,61.73a.82.82,0,0,0,0-1.15h0A.85.85,0,0,0,21.43,60.35Zm8,0a.81.81,0,0,0-.81.81h0a.76.76,0,0,0,.25.58L33.18,66l-4.33,4.27A.81.81,0,0,0,30,71.42h0l4.84-4.78a.84.84,0,0,0,.27-.88L35,65.61v-.06h0l-4.84-4.79a.84.84,0,0,0-.74-.41Z"/><path class="cls-14" d="M19,84c-.81.08-.89.12-.89.94v3.89c0,.82.09.85.89.93V90H16.36v-.27c.81-.09.89-.11.89-.93V86.92H13.93v1.94c0,.81.08.84.87.93v.27H12.21v-.27c.79-.08.87-.11.87-.93V85c0-.82-.08-.86-.87-.94v-.27H14.8V84c-.77.07-.87.13-.87.94v1.54h3.32V85c0-.81-.11-.87-.89-.94v-.27H19Z"/><path class="cls-14" d="M25,85.28a4,4,0,0,0-.31-.81c-.15-.26-.25-.33-.78-.33h-1v4.73c0,.76.07.86,1,.92v.27h-2.8v-.27c.9-.06,1-.15,1-.92V84.14h-.9c-.53,0-.69.06-.86.35a4.47,4.47,0,0,0-.31.79h-.3c.06-.59.12-1.2.15-1.75h.22c.15.24.25.23.53.23h3.84a.49.49,0,0,0,.49-.23h.24a13.12,13.12,0,0,0,.08,1.72Z"/><path class="cls-14" d="M31.4,90.06v-.27c.8-.08.83-.13.82-1.17v-4c-.8,1.78-2.08,4.55-2.42,5.4h-.25c-.33-.88-1.43-3.55-2.17-5.3-.16,3.39-.17,4.16-.17,4.34,0,.55.25.62.91.69V90h-2.3v-.27c.56-.06.8-.17.87-.7s.07-.77.32-4.31c0-.51,0-.67-.91-.75v-.27h1.69l2.15,4.92,2.3-4.92h1.69V84c-.83.1-.94.18-.92.86v3.73c0,1,.07,1.09.92,1.17V90Z"/><path class="cls-14" d="M39.73,88.45c-.06.3-.35,1.31-.45,1.61H34.77v-.27c.88-.08,1-.13,1-1V85c0-.83-.1-.87-.87-1v-.27h2.6V84c-.78.08-.88.11-.88,1v4c0,.59.07.73.63.74H38c.5,0,.64-.06.87-.3a4.18,4.18,0,0,0,.59-1Z"/><g id="SvgjsG1016"><path id="SvgjsPath1017" class="cls-9" d="M88.08,26.79h48.54V43H88.08Z"/><g id="SvgjsG1018"><g id="SvgjsText1019"><text class="cls-17" transform="translate(101.18 36.5)">&lt;iframe&gt;</text></g></g></g></g></g></g></g></svg>